# xmcd
#
# Track frame offsets:
#	150
#	23424
#	45497
#
# Disc length: 901 seconds
#
# Revision: 0
# Processed by: cddbd v1.5.2PL0 Copyright (c) Steve Scherf et al.
# Submitted via: audiograbber 1.83.01
#
DISCID=14038303
DTITLE=UFO - Wonderland
DYEAR=2013
DGENRE=Hard Rock
TTITLE0=Wonderland
TTITLE1=Shoot Shoot (Live)
TTITLE2=When Daylight Goes To Town (Live)
EXTD=
EXTT0=
EXTT1=
EXTT2=
PLAYORDER=
